<svg xmlns="http://www.w3.org/2000/svg" viewBox="-6 6 112 78"><rect x="-6" y="6" width="112" height="78" rx="14" fill="#ECE9E2"/><g fill="#2A2119" stroke="#2A2119" stroke-width="2" stroke-linejoin="round"><g opacity=".22"><polygon points="8,54 20,66 8,78 -4,66"/><polygon points="36,54 48,66 36,78 24,66"/><polygon points="64,54 76,66 64,78 52,66"/><polygon points="92,54 104,66 92,78 80,66"/></g><g opacity=".45"><polygon points="22,40 34,52 22,64 10,52"/><polygon points="50,40 62,52 50,64 38,52"/><polygon points="78,40 90,52 78,64 66,52"/></g><g opacity=".72"><polygon points="36,26 48,38 36,50 24,38"/><polygon points="64,26 76,38 64,50 52,38"/></g><polygon points="50,12 62,24 50,36 38,24"/></g></svg>
